<?xml version="1.0" standalone="no"?>
<!DOCTYPE svg PUBLIC "-//W3C//DTD SVG 20010904//EN"
 "http://www.w3.org/TR/2001/REC-SVG-20010904/DTD/svg10.dtd">
<svg version="1.0" xmlns="http://www.w3.org/2000/svg"
 width="500.000000pt" height="500.000000pt" viewBox="0 0 500.000000 500.000000"
 preserveAspectRatio="xMidYMid meet">

<g transform="translate(0.000000,500.000000) scale(0.100000,-0.100000)"
fill="#000000" stroke="none">
<path d="M894 3062 c-109 -79 -268 -336 -338 -545 -88 -262 -71 -365 73 -458
66 -43 115 -40 178 10 72 57 132 128 164 196 30 63 49 155 32 155 -5 0 -28
-28 -51 -62 -87 -132 -192 -227 -269 -243 -27 -5 -37 -2 -59 20 -26 26 -26 30
-21 103 10 144 124 434 238 606 71 108 133 166 177 166 23 0 24 -2 20 -50 -4
-35 -19 -73 -52 -130 -25 -44 -46 -82 -46 -85 0 -11 56 8 93 32 91 58 102 198
21 278 -46 46 -102 49 -160 7z m-93 -239 c-16 -27 -50 -86 -75 -133 -25 -47
-46 -82 -46 -77 0 24 131 257 145 257 3 0 -8 -21 -24 -47z m-130 -250 c-12
-20 -14 -14 -5 12 4 9 9 14 11 11 3 -2 0 -13 -6 -23z"/>
<path d="M2832 3039 c-69 -34 -147 -113 -157 -159 -4 -16 -11 -32 -16 -35 -13
-9 -11 -71 5 -135 7 -30 41 -121 75 -201 82 -196 80 -241 -11 -326 -72 -65
-152 -77 -185 -26 -22 33 -12 115 23 193 46 103 -6 105 -81 2 -55 -77 -70
-163 -35 -219 39 -64 135 -88 236 -58 94 27 130 50 168 107 75 114 76 169 6
303 -28 53 -48 100 -46 104 3 4 -6 36 -21 71 -34 86 -30 157 14 221 71 102
232 163 249 93 8 -31 -12 -89 -45 -127 -35 -41 -71 -104 -64 -111 19 -18 139
95 178 168 33 61 -3 120 -92 150 -73 25 -131 21 -201 -15z m-375 -791 c-3 -8
-6 -5 -6 6 -1 11 2 17 5 13 3 -3 4 -12 1 -19z m-10 -55 c-3 -10 -5 -4 -5 12 0
17 2 24 5 18 2 -7 2 -21 0 -30z"/>
<path d="M4317 3026 c-40 -42 -99 -136 -126 -202 l-22 -50 -130 -11 c-71 -5
-132 -13 -136 -17 -16 -16 17 -21 127 -19 l119 2 -11 -27 c-5 -15 -23 -65 -40
-111 -16 -47 -33 -92 -38 -102 -8 -15 -89 -43 -98 -34 -2 2 1 27 7 55 21 96
16 128 -28 171 -63 64 -119 48 -173 -48 -16 -29 -37 -53 -46 -53 -8 0 -48 -33
-87 -74 -41 -41 -84 -76 -100 -80 -16 -4 -42 -17 -59 -29 -19 -14 -28 -16 -23
-6 63 146 65 156 46 224 -23 84 -74 99 -134 40 -34 -35 -226 -318 -259 -382
-9 -18 -18 -33 -21 -33 -5 0 92 291 105 312 26 44 -5 118 -49 118 -24 0 -44
-24 -39 -47 4 -18 -57 -203 -91 -278 -11 -22 -29 -76 -41 -120 -12 -44 -30
-102 -40 -130 -26 -74 -53 -240 -46 -278 7 -38 48 -82 68 -74 8 3 21 47 32
113 10 60 25 134 33 164 16 63 83 200 122 250 15 19 48 67 73 105 71 111 123
175 162 201 69 47 71 1 5 -126 -45 -86 -170 -230 -200 -230 -17 0 -19 -4 -13
-22 13 -42 36 -68 59 -68 17 0 48 26 106 90 45 50 87 90 91 90 5 0 24 11 42
25 18 14 36 25 40 25 5 0 21 9 36 20 l28 20 -5 -39 c-15 -114 87 -200 183
-155 43 21 123 98 162 159 14 22 27 42 29 44 3 4 93 20 93 16 0 -1 -13 -59
-30 -131 -46 -197 -39 -255 30 -284 25 -10 34 -10 54 3 26 18 121 133 192 234
26 37 67 95 91 127 24 33 43 66 43 73 0 34 -34 3 -117 -104 -91 -119 -199
-245 -215 -251 -41 -17 24 237 123 474 22 54 45 114 50 132 6 17 13 33 17 33
4 1 40 3 80 5 70 3 102 14 102 37 0 6 -28 7 -80 3 -44 -4 -80 -5 -80 -1 0 12
83 157 105 183 57 69 53 102 -12 102 -27 0 -42 -8 -66 -34z m-403 -368 c11
-18 -7 -128 -30 -185 -14 -35 -27 -39 -68 -23 -22 8 -26 16 -26 49 0 71 70
189 104 178 5 -2 14 -10 20 -19z m-95 -234 c35 -7 38 -19 15 -54 -52 -78 -144
-144 -174 -125 -18 11 -11 65 21 143 41 104 44 106 79 71 16 -16 42 -32 59
-35z m315 12 c-9 -26 -18 -45 -20 -43 -2 2 3 25 12 51 9 26 18 45 20 43 2 -2
-3 -25 -12 -51z m-1123 -203 c-12 -20 -14 -14 -5 12 4 9 9 14 11 11 3 -2 0
-13 -6 -23z m-30 -80 c-12 -20 -14 -14 -5 12 4 9 9 14 11 11 3 -2 0 -13 -6
-23z"/>
<path d="M2015 2961 c-17 -10 -44 -33 -60 -52 -34 -41 -103 -187 -145 -307
-17 -48 -32 -92 -35 -99 -2 -7 -19 2 -41 23 -55 50 -92 47 -150 -12 -29 -30
-57 -49 -81 -55 -21 -4 -39 -7 -40 -5 -1 1 5 36 13 78 14 70 14 80 0 110 -19
39 -72 78 -108 78 -28 0 -92 -62 -108 -105 -5 -13 -26 -33 -47 -44 -53 -27
-87 -66 -122 -141 -36 -76 -38 -107 -12 -159 33 -64 94 -92 156 -71 38 13 157
125 181 172 8 15 23 32 33 38 21 11 71 14 71 4 0 -3 -10 -37 -21 -76 -25 -80
-21 -129 12 -164 39 -42 78 -32 165 42 l52 44 3 -79 c4 -67 8 -83 28 -105 52
-55 95 -26 218 146 71 99 123 161 123 146 0 -2 -5 -30 -11 -62 -7 -41 -7 -66
1 -90 13 -41 74 -86 116 -86 35 0 89 42 142 110 20 27 65 84 100 129 58 75 78
118 50 109 -7 -3 -51 -53 -96 -111 -90 -116 -154 -175 -193 -179 -31 -4 -36
24 -19 114 l13 67 53 26 c62 30 140 112 149 156 13 58 -54 111 -120 95 -38
-10 -98 -68 -130 -128 -15 -29 -42 -69 -59 -88 -17 -19 -78 -97 -134 -172 -57
-76 -109 -138 -117 -138 -32 0 -6 251 32 309 9 14 42 59 72 99 145 190 200
286 209 357 4 37 1 47 -21 69 -31 31 -79 34 -122 7z m95 -78 c0 -33 -47 -130
-107 -219 -106 -160 -116 -174 -120 -170 -7 6 79 242 114 313 19 40 46 85 60
100 25 26 26 26 39 8 8 -10 14 -25 14 -32z m-700 -218 c16 -19 9 -89 -17 -165
-19 -58 -32 -67 -76 -51 -22 9 -27 17 -27 46 0 48 27 114 63 153 35 36 40 38
57 17z m933 -101 c-3 -39 -36 -82 -96 -126 l-28 -20 16 38 c9 22 21 50 27 64
15 39 59 92 71 87 7 -2 11 -20 10 -43z m-603 -96 c21 -34 20 -52 -2 -128 -7
-24 -30 -52 -74 -89 -62 -51 -94 -61 -94 -27 0 42 70 224 102 264 18 22 48 13
68 -20z m-421 -44 c17 -4 33 -9 35 -13 3 -4 -13 -31 -33 -61 -44 -65 -118
-116 -151 -105 -20 6 -22 12 -16 51 3 25 21 79 41 121 l35 75 29 -31 c16 -17
43 -34 60 -37z m792 -116 c-8 -28 -9 -30 -10 -8 -1 34 12 80 17 58 2 -9 -1
-31 -7 -50z"/>
</g>
</svg>
